HIERARCHY
ROOT Hips
{
	OFFSET -0.001795 -0.223333 0.028219
	CHANNELS 6 Xposition Yposition Zposition Zrotation Yrotation Xrotation 
	JOINT LeftUpLeg
	{
		OFFSET 0.069520 -0.091406 -0.006815
		CHANNELS 3 Zrotation Yrotation Xrotation
		JOINT LeftLeg
		{
			OFFSET 0.034277 -0.375199 -0.004496
			CHANNELS 3 Zrotation Yrotation Xrotation
			JOINT LeftFoot
			{
				OFFSET -0.013596 -0.397961 -0.043693
				CHANNELS 3 Zrotation Yrotation Xrotation
				JOINT LeftToe
				{
					OFFSET 0.026358 -0.055791 0.119288
					CHANNELS 3 Zrotation Yrotation Xrotation
					End Site
					{
						OFFSET 0.000000 0.000000 0.000000
					}
				}
			}
		}
	}
	JOINT RightUpLeg
	{
		OFFSET -0.067670 -0.090522 -0.004320
		CHANNELS 3 Zrotation Yrotation Xrotation
		JOINT RightLeg
		{
			OFFSET -0.038290 -0.382569 -0.008850
			CHANNELS 3 Zrotation Yrotation Xrotation
			JOINT RightFoot
			{
				OFFSET 0.015774 -0.398415 -0.042312
				CHANNELS 3 Zrotation Yrotation Xrotation
				JOINT RightToe
				{
					OFFSET -0.025372 -0.048144 0.123348
					CHANNELS 3 Zrotation Yrotation Xrotation
					End Site
					{
						OFFSET 0.000000 0.000000 0.000000
					}
				}
			}
		}
	}
	JOINT Spine
	{
		OFFSET -0.002533 0.108963 -0.026696
		CHANNELS 3 Zrotation Yrotation Xrotation
		JOINT Spine1
		{
			OFFSET 0.005487 0.135180 0.001092
			CHANNELS 3 Zrotation Yrotation Xrotation
			JOINT Spine2
			{
				OFFSET 0.001457 0.052922 0.025425
				CHANNELS 3 Zrotation Yrotation Xrotation
				JOINT Neck
				{
					OFFSET -0.002778 0.213870 -0.042857
					CHANNELS 3 Zrotation Yrotation Xrotation
					JOINT Head
					{
						OFFSET 0.005152 0.064970 0.051349
						CHANNELS 3 Zrotation Yrotation Xrotation
						End Site
						{
							OFFSET 0.000000 0.000000 0.000000
						}
					}
				}
				JOINT LeftShoulder
				{
					OFFSET 0.078845 0.121749 -0.034090
					CHANNELS 3 Zrotation Yrotation Xrotation
					JOINT LeftArm
					{
						OFFSET 0.090977 0.030469 -0.008868
						CHANNELS 3 Zrotation Yrotation Xrotation
						JOINT LeftForeArm
						{
							OFFSET 0.259612 -0.012772 -0.027456
							CHANNELS 3 Zrotation Yrotation Xrotation
							JOINT LeftHand
							{
								OFFSET 0.249234 0.008986 -0.001171
								CHANNELS 3 Zrotation Yrotation Xrotation
								End Site
								{
									OFFSET 0.000000 0.000000 0.000000
								}
							}
						}
					}
				}
				JOINT RightShoulder
				{
					OFFSET -0.081759 0.118833 -0.038615
					CHANNELS 3 Zrotation Yrotation Xrotation
					JOINT RightArm
					{
						OFFSET -0.096012 0.032551 -0.009143
						CHANNELS 3 Zrotation Yrotation Xrotation
						JOINT RightForeArm
						{
							OFFSET -0.253742 -0.013329 -0.021401
							CHANNELS 3 Zrotation Yrotation Xrotation
							JOINT RightHand
							{
								OFFSET -0.255298 0.007772 -0.005559
								CHANNELS 3 Zrotation Yrotation Xrotation
								End Site
								{
									OFFSET 0.000000 0.000000 0.000000
								}
							}
						}
					}
				}
			}
		}
	}
}
MOTION
Frames: 6
Frame Time: 0.050000
0.000000 0.930614 0.000000 -1.149750 -4.987944 -0.774273 3.747789 0.048546 0.728158 -5.129614 0.667254 2.619644 7.049322 15.245353 6.413691 0.000000 0.000000 0.000000 2.226850 -0.182438 1.027865 4.041553 -0.347138 4.358600 -3.649375 -9.661493 1.903183 0.000000 0.000000 0.000000 3.720665 0.144619 -2.134315 -1.494194 0.709229 -1.869406 -1.687909 3.554416 10.314787 4.654900 -1.740173 -15.553308 0.000000 0.000000 0.000000 -26.472225 -9.970586 3.424762 -46.593317 -6.245721 -3.595223 -8.356358 -34.203377 3.926318 0.000000 0.000000 0.000000 27.138734 5.037676 1.198398 56.214876 0.335988 -6.017476 3.494249 26.414597 1.794952 0.000000 0.000000 0.000000 
-0.000383 0.931880 0.000485 -1.803125 -5.663231 -0.732380 4.821242 0.082525 1.287150 -5.807987 0.761658 1.858886 7.216167 15.557784 6.934127 0.000000 0.000000 0.000000 3.138027 -0.246960 1.264107 3.555892 -0.281819 3.968531 -3.256605 -8.987449 2.551903 0.000000 0.000000 0.000000 4.528433 0.220556 -2.848731 -1.732070 0.822749 -1.026888 -1.504403 4.570008 9.884097 4.449371 -1.561244 -15.205987 0.000000 0.000000 0.000000 -25.384564 -10.656080 3.576793 -44.300898 -7.107920 -3.017072 -11.417078 -42.128516 6.011864 0.000000 0.000000 0.000000 27.555545 5.456296 1.708236 55.758311 0.271590 -6.028779 3.563890 25.898513 1.791285 0.000000 0.000000 0.000000 
-0.000836 0.933245 0.000529 -2.707117 -5.542159 -1.162935 5.482974 0.111231 1.877422 -5.118052 0.659572 1.809464 7.151801 15.454575 6.994036 0.000000 0.000000 0.000000 3.773877 -0.321660 1.697575 4.213056 -0.365820 4.167801 -3.079132 -8.919127 3.502780 0.000000 0.000000 0.000000 5.060836 0.205619 -2.457482 -1.810525 0.852960 -1.878894 -1.046186 5.572426 9.806608 4.002404 -1.138701 -15.362379 0.000000 0.000000 0.000000 -23.743150 -10.501085 3.131551 -41.246263 -11.253687 -1.389690 -13.866812 -53.800213 8.963640 0.000000 0.000000 0.000000 27.035496 4.622506 1.580265 55.350211 -1.207087 -6.744965 4.385034 26.794023 2.099157 0.000000 0.000000 0.000000 
-0.001530 0.931744 0.000671 -3.323945 -5.627032 -0.696068 6.050863 0.084500 1.523033 -4.882883 0.624836 1.725668 7.335158 15.737958 6.255360 0.000000 0.000000 0.000000 5.132039 -0.346009 1.437832 3.079891 -0.224656 3.874969 -3.159413 -8.970147 3.125545 0.000000 0.000000 0.000000 5.598901 0.366880 -4.089516 -1.600304 0.754772 -1.896517 -0.842943 6.469164 10.518959 4.474521 -1.291827 -15.866493 0.000000 0.000000 0.000000 -22.983687 -11.282875 3.361183 -37.474875 -16.418041 0.210435 -5.130781 -69.757664 5.946698 0.000000 0.000000 0.000000 27.836302 5.242040 2.327598 54.587052 -1.282054 -6.841063 3.775831 27.183905 2.037304 0.000000 0.000000 0.000000 
-0.002137 0.931373 0.001044 -3.129555 -4.785765 -0.543825 5.896151 0.056578 1.218381 -4.782549 0.599942 1.745741 6.988371 15.116961 6.005139 0.000000 0.000000 0.000000 5.011819 -0.370547 1.656687 3.164499 -0.255056 3.183744 -3.466918 -9.638000 3.106131 0.000000 0.000000 0.000000 5.690855 0.441449 -4.899786 -1.199590 0.575039 -2.434176 -1.315182 6.926527 10.684853 4.413538 -1.195446 -15.466696 0.000000 0.000000 0.000000 -20.677578 -12.273541 3.670976 -33.340110 -22.310381 1.630047 54.160228 -81.562093 -44.938570 0.000000 0.000000 0.000000 27.968871 4.777661 2.419269 54.810764 -1.680069 -7.147987 2.323939 26.636508 1.718990 0.000000 0.000000 0.000000 
-0.002796 0.930967 0.001900 -2.976068 -3.672643 -0.788255 5.890441 0.041086 1.187742 -4.804075 0.591838 2.056466 6.506333 14.235362 5.601685 0.000000 0.000000 0.000000 5.457276 -0.532645 2.714674 2.357136 -0.194562 1.827038 -3.869880 -10.541288 3.165627 0.000000 0.000000 0.000000 5.287144 0.523379 -5.991443 -0.904263 0.449164 -2.389351 -1.406294 6.562208 10.793644 3.963295 -1.047956 -14.157511 0.000000 0.000000 0.000000 -18.559841 -13.655471 4.380566 -27.670108 -28.083703 2.290671 109.516959 -72.859855 -89.580682 0.000000 0.000000 0.000000 27.540522 5.587314 3.048766 55.175269 -2.070511 -7.377664 2.472351 26.135369 1.709778 0.000000 0.000000 0.000000 
